<mxfile host="app.diagrams.net" agent="Mozilla/5.0 (Windows NT 10.0; Win64; x64; rv:132.0) Gecko/20100101 Firefox/132.0" version="24.8.4" pages="3">
  <diagram name="Страница — 1" id="T9vKFkRFaZNIqlPdjNZI">
    <mxGraphModel dx="1050" dy="626" grid="1" gridSize="10" guides="1" tooltips="1" connect="1" arrows="1" fold="1" page="1" pageScale="1" pageWidth="827" pageHeight="1169" math="0" shadow="0">
      <root>
        <mxCell id="0" />
        <mxCell id="1" parent="0" />
        <mxCell id="J0K3wJEduVelJ7TYYcCe-3" style="edgeStyle=orthogonalEdgeStyle;rounded=0;orthogonalLoop=1;jettySize=auto;html=1;" parent="1" source="J0K3wJEduVelJ7TYYcCe-2" edge="1">
          <mxGeometry relative="1" as="geometry">
            <mxPoint x="400" y="200" as="targetPoint" />
          </mxGeometry>
        </mxCell>
        <mxCell id="J0K3wJEduVelJ7TYYcCe-2" value="НАЧАЛО" style="ellipse;whiteSpace=wrap;html=1;" parent="1" vertex="1">
          <mxGeometry x="340" y="30" width="120" height="80" as="geometry" />
        </mxCell>
        <mxCell id="J0K3wJEduVelJ7TYYcCe-4" value="" style="endArrow=none;dashed=1;html=1;rounded=0;entryX=0.015;entryY=0.5;entryDx=0;entryDy=0;entryPerimeter=0;" parent="1" target="J0K3wJEduVelJ7TYYcCe-5" edge="1">
          <mxGeometry width="50" height="50" relative="1" as="geometry">
            <mxPoint x="400" y="143" as="sourcePoint" />
            <mxPoint x="580" y="150" as="targetPoint" />
          </mxGeometry>
        </mxCell>
        <mxCell id="J0K3wJEduVelJ7TYYcCe-5" value="" style="shape=curlyBracket;whiteSpace=wrap;html=1;rounded=1;labelPosition=left;verticalLabelPosition=middle;align=right;verticalAlign=middle;" parent="1" vertex="1">
          <mxGeometry x="480" y="90" width="140" height="105" as="geometry" />
        </mxCell>
        <mxCell id="J0K3wJEduVelJ7TYYcCe-7" value="&lt;div&gt;#include&lt;br&gt;&lt;/div&gt;&lt;div&gt;using namespace std;&lt;/div&gt;&lt;div&gt;int main()&lt;/div&gt;&lt;div&gt;{&lt;br&gt;&lt;/div&gt;" style="text;html=1;align=center;verticalAlign=middle;whiteSpace=wrap;rounded=0;" parent="1" vertex="1">
          <mxGeometry x="560" y="102.5" width="160" height="80" as="geometry" />
        </mxCell>
        <mxCell id="J0K3wJEduVelJ7TYYcCe-9" style="edgeStyle=orthogonalEdgeStyle;rounded=0;orthogonalLoop=1;jettySize=auto;html=1;" parent="1" source="J0K3wJEduVelJ7TYYcCe-8" edge="1">
          <mxGeometry relative="1" as="geometry">
            <mxPoint x="400" y="299.9999999999999" as="targetPoint" />
          </mxGeometry>
        </mxCell>
        <mxCell id="J0K3wJEduVelJ7TYYcCe-8" value="int a, b, c, max;" style="rounded=0;whiteSpace=wrap;html=1;" parent="1" vertex="1">
          <mxGeometry x="340" y="200" width="120" height="60" as="geometry" />
        </mxCell>
        <mxCell id="J0K3wJEduVelJ7TYYcCe-12" style="edgeStyle=orthogonalEdgeStyle;rounded=0;orthogonalLoop=1;jettySize=auto;html=1;entryX=0.5;entryY=0;entryDx=0;entryDy=0;" parent="1" target="J0K3wJEduVelJ7TYYcCe-11" edge="1">
          <mxGeometry relative="1" as="geometry">
            <mxPoint x="400" y="359.9999999999999" as="sourcePoint" />
          </mxGeometry>
        </mxCell>
        <mxCell id="J0K3wJEduVelJ7TYYcCe-13" style="edgeStyle=orthogonalEdgeStyle;rounded=0;orthogonalLoop=1;jettySize=auto;html=1;exitX=0;exitY=0.5;exitDx=0;exitDy=0;" parent="1" source="J0K3wJEduVelJ7TYYcCe-11" edge="1">
          <mxGeometry relative="1" as="geometry">
            <mxPoint x="200" y="480" as="targetPoint" />
          </mxGeometry>
        </mxCell>
        <mxCell id="J0K3wJEduVelJ7TYYcCe-14" style="edgeStyle=orthogonalEdgeStyle;rounded=0;orthogonalLoop=1;jettySize=auto;html=1;exitX=1;exitY=0.5;exitDx=0;exitDy=0;" parent="1" source="J0K3wJEduVelJ7TYYcCe-11" edge="1">
          <mxGeometry relative="1" as="geometry">
            <mxPoint x="600" y="480" as="targetPoint" />
          </mxGeometry>
        </mxCell>
        <mxCell id="J0K3wJEduVelJ7TYYcCe-11" value="if (a&amp;gt;=c)" style="rhombus;whiteSpace=wrap;html=1;" parent="1" vertex="1">
          <mxGeometry x="360" y="390" width="80" height="80" as="geometry" />
        </mxCell>
        <mxCell id="J0K3wJEduVelJ7TYYcCe-15" value="max = a;" style="rounded=0;whiteSpace=wrap;html=1;" parent="1" vertex="1">
          <mxGeometry x="140" y="480" width="120" height="60" as="geometry" />
        </mxCell>
        <mxCell id="J0K3wJEduVelJ7TYYcCe-16" value="max = c;" style="rounded=0;whiteSpace=wrap;html=1;" parent="1" vertex="1">
          <mxGeometry x="540" y="480" width="120" height="60" as="geometry" />
        </mxCell>
        <mxCell id="J0K3wJEduVelJ7TYYcCe-17" value="cin &amp;gt;&amp;gt;a&amp;gt;&amp;gt;b&amp;gt;&amp;gt;c;" style="shape=parallelogram;perimeter=parallelogramPerimeter;whiteSpace=wrap;html=1;fixedSize=1;" parent="1" vertex="1">
          <mxGeometry x="340" y="300" width="120" height="60" as="geometry" />
        </mxCell>
        <mxCell id="J0K3wJEduVelJ7TYYcCe-20" value="" style="endArrow=none;html=1;rounded=0;exitX=0.5;exitY=1;exitDx=0;exitDy=0;" parent="1" source="J0K3wJEduVelJ7TYYcCe-15" edge="1">
          <mxGeometry width="50" height="50" relative="1" as="geometry">
            <mxPoint x="350" y="520" as="sourcePoint" />
            <mxPoint x="200" y="560" as="targetPoint" />
          </mxGeometry>
        </mxCell>
        <mxCell id="J0K3wJEduVelJ7TYYcCe-21" value="" style="endArrow=none;html=1;rounded=0;exitX=0.5;exitY=1;exitDx=0;exitDy=0;" parent="1" edge="1">
          <mxGeometry width="50" height="50" relative="1" as="geometry">
            <mxPoint x="599.81" y="540" as="sourcePoint" />
            <mxPoint x="599.81" y="560" as="targetPoint" />
          </mxGeometry>
        </mxCell>
        <mxCell id="J0K3wJEduVelJ7TYYcCe-22" value="" style="endArrow=none;html=1;rounded=0;" parent="1" edge="1">
          <mxGeometry width="50" height="50" relative="1" as="geometry">
            <mxPoint x="199.6153846153846" y="560" as="sourcePoint" />
            <mxPoint x="600" y="560" as="targetPoint" />
          </mxGeometry>
        </mxCell>
        <mxCell id="J0K3wJEduVelJ7TYYcCe-24" value="" style="endArrow=classic;html=1;rounded=0;" parent="1" edge="1">
          <mxGeometry width="50" height="50" relative="1" as="geometry">
            <mxPoint x="400" y="560" as="sourcePoint" />
            <mxPoint x="400" y="600" as="targetPoint" />
          </mxGeometry>
        </mxCell>
        <mxCell id="J0K3wJEduVelJ7TYYcCe-36" style="edgeStyle=orthogonalEdgeStyle;rounded=0;orthogonalLoop=1;jettySize=auto;html=1;exitX=0;exitY=0.5;exitDx=0;exitDy=0;" parent="1" source="J0K3wJEduVelJ7TYYcCe-38" edge="1">
          <mxGeometry relative="1" as="geometry">
            <mxPoint x="200" y="690" as="targetPoint" />
          </mxGeometry>
        </mxCell>
        <mxCell id="J0K3wJEduVelJ7TYYcCe-38" value="if (b&amp;gt;=max)" style="rhombus;whiteSpace=wrap;html=1;" parent="1" vertex="1">
          <mxGeometry x="360" y="600" width="80" height="80" as="geometry" />
        </mxCell>
        <mxCell id="J0K3wJEduVelJ7TYYcCe-39" value="max = b;" style="rounded=0;whiteSpace=wrap;html=1;" parent="1" vertex="1">
          <mxGeometry x="140" y="690" width="120" height="60" as="geometry" />
        </mxCell>
        <mxCell id="J0K3wJEduVelJ7TYYcCe-41" value="" style="endArrow=none;html=1;rounded=0;exitX=0.5;exitY=1;exitDx=0;exitDy=0;" parent="1" source="J0K3wJEduVelJ7TYYcCe-39" edge="1">
          <mxGeometry width="50" height="50" relative="1" as="geometry">
            <mxPoint x="350" y="730" as="sourcePoint" />
            <mxPoint x="200" y="770" as="targetPoint" />
          </mxGeometry>
        </mxCell>
        <mxCell id="J0K3wJEduVelJ7TYYcCe-42" value="" style="endArrow=none;html=1;rounded=0;exitX=0.5;exitY=1;exitDx=0;exitDy=0;" parent="1" edge="1">
          <mxGeometry width="50" height="50" relative="1" as="geometry">
            <mxPoint x="599.81" y="750" as="sourcePoint" />
            <mxPoint x="599.81" y="770" as="targetPoint" />
          </mxGeometry>
        </mxCell>
        <mxCell id="J0K3wJEduVelJ7TYYcCe-43" value="" style="endArrow=none;html=1;rounded=0;" parent="1" edge="1">
          <mxGeometry width="50" height="50" relative="1" as="geometry">
            <mxPoint x="199.6153846153846" y="770" as="sourcePoint" />
            <mxPoint x="600" y="770" as="targetPoint" />
          </mxGeometry>
        </mxCell>
        <mxCell id="J0K3wJEduVelJ7TYYcCe-44" value="" style="endArrow=classic;html=1;rounded=0;" parent="1" edge="1">
          <mxGeometry width="50" height="50" relative="1" as="geometry">
            <mxPoint x="400" y="770" as="sourcePoint" />
            <mxPoint x="400" y="810" as="targetPoint" />
          </mxGeometry>
        </mxCell>
        <mxCell id="J0K3wJEduVelJ7TYYcCe-45" value="0" style="text;html=1;align=center;verticalAlign=middle;resizable=0;points=[];autosize=1;strokeColor=none;fillColor=none;" parent="1" vertex="1">
          <mxGeometry x="525" y="400" width="30" height="30" as="geometry" />
        </mxCell>
        <mxCell id="J0K3wJEduVelJ7TYYcCe-46" value="0" style="text;html=1;align=center;verticalAlign=middle;resizable=0;points=[];autosize=1;strokeColor=none;fillColor=none;" parent="1" vertex="1">
          <mxGeometry x="525" y="610" width="30" height="30" as="geometry" />
        </mxCell>
        <mxCell id="J0K3wJEduVelJ7TYYcCe-47" value="1" style="text;html=1;align=center;verticalAlign=middle;resizable=0;points=[];autosize=1;strokeColor=none;fillColor=none;" parent="1" vertex="1">
          <mxGeometry x="230" y="400" width="30" height="30" as="geometry" />
        </mxCell>
        <mxCell id="J0K3wJEduVelJ7TYYcCe-48" value="1" style="text;html=1;align=center;verticalAlign=middle;resizable=0;points=[];autosize=1;strokeColor=none;fillColor=none;" parent="1" vertex="1">
          <mxGeometry x="230" y="610" width="30" height="30" as="geometry" />
        </mxCell>
        <mxCell id="J0K3wJEduVelJ7TYYcCe-52" value="" style="endArrow=none;html=1;rounded=0;exitX=1;exitY=0.5;exitDx=0;exitDy=0;" parent="1" source="J0K3wJEduVelJ7TYYcCe-38" edge="1">
          <mxGeometry width="50" height="50" relative="1" as="geometry">
            <mxPoint x="400" y="690" as="sourcePoint" />
            <mxPoint x="600" y="640" as="targetPoint" />
          </mxGeometry>
        </mxCell>
        <mxCell id="J0K3wJEduVelJ7TYYcCe-53" value="" style="endArrow=none;html=1;rounded=0;" parent="1" edge="1">
          <mxGeometry width="50" height="50" relative="1" as="geometry">
            <mxPoint x="600" y="640" as="sourcePoint" />
            <mxPoint x="600" y="750" as="targetPoint" />
          </mxGeometry>
        </mxCell>
        <mxCell id="J0K3wJEduVelJ7TYYcCe-57" style="edgeStyle=orthogonalEdgeStyle;rounded=0;orthogonalLoop=1;jettySize=auto;html=1;" parent="1" source="J0K3wJEduVelJ7TYYcCe-54" target="J0K3wJEduVelJ7TYYcCe-58" edge="1">
          <mxGeometry relative="1" as="geometry">
            <mxPoint x="400" y="960" as="targetPoint" />
          </mxGeometry>
        </mxCell>
        <mxCell id="J0K3wJEduVelJ7TYYcCe-54" value="cout&amp;lt;&amp;lt;max&amp;lt;&amp;lt;endl;" style="shape=parallelogram;perimeter=parallelogramPerimeter;whiteSpace=wrap;html=1;fixedSize=1;" parent="1" vertex="1">
          <mxGeometry x="340" y="810" width="120" height="60" as="geometry" />
        </mxCell>
        <mxCell id="J0K3wJEduVelJ7TYYcCe-55" value="" style="shape=curlyBracket;whiteSpace=wrap;html=1;rounded=1;labelPosition=left;verticalLabelPosition=middle;align=right;verticalAlign=middle;" parent="1" vertex="1">
          <mxGeometry x="570" y="850" width="140" height="105" as="geometry" />
        </mxCell>
        <mxCell id="J0K3wJEduVelJ7TYYcCe-56" value="&lt;div&gt;return 0;&lt;/div&gt;&lt;div&gt;}&lt;/div&gt;" style="text;html=1;align=center;verticalAlign=middle;whiteSpace=wrap;rounded=0;" parent="1" vertex="1">
          <mxGeometry x="650" y="862.5" width="160" height="80" as="geometry" />
        </mxCell>
        <mxCell id="J0K3wJEduVelJ7TYYcCe-58" value="КОНЕЦ" style="ellipse;whiteSpace=wrap;html=1;" parent="1" vertex="1">
          <mxGeometry x="340" y="920" width="120" height="80" as="geometry" />
        </mxCell>
        <mxCell id="J0K3wJEduVelJ7TYYcCe-59" value="" style="endArrow=none;dashed=1;html=1;rounded=0;exitX=0.021;exitY=0.502;exitDx=0;exitDy=0;exitPerimeter=0;" parent="1" source="J0K3wJEduVelJ7TYYcCe-55" edge="1">
          <mxGeometry width="50" height="50" relative="1" as="geometry">
            <mxPoint x="575.18" y="905.815" as="sourcePoint" />
            <mxPoint x="400" y="903" as="targetPoint" />
          </mxGeometry>
        </mxCell>
      </root>
    </mxGraphModel>
  </diagram>
  <diagram id="57v9im-aYJFWre40yesn" name="Страница — 2">
    <mxGraphModel dx="1313" dy="783" grid="1" gridSize="10" guides="1" tooltips="1" connect="1" arrows="1" fold="1" page="1" pageScale="1" pageWidth="827" pageHeight="1169" math="0" shadow="0">
      <root>
        <mxCell id="0" />
        <mxCell id="1" parent="0" />
        <mxCell id="mRYv8QTVLDcQBSFWTLud-1" style="edgeStyle=orthogonalEdgeStyle;rounded=0;orthogonalLoop=1;jettySize=auto;html=1;" edge="1" parent="1" source="mRYv8QTVLDcQBSFWTLud-2">
          <mxGeometry relative="1" as="geometry">
            <mxPoint x="400" y="200" as="targetPoint" />
          </mxGeometry>
        </mxCell>
        <mxCell id="mRYv8QTVLDcQBSFWTLud-2" value="НАЧАЛО" style="ellipse;whiteSpace=wrap;html=1;" vertex="1" parent="1">
          <mxGeometry x="340" y="30" width="120" height="80" as="geometry" />
        </mxCell>
        <mxCell id="mRYv8QTVLDcQBSFWTLud-3" value="" style="endArrow=none;dashed=1;html=1;rounded=0;entryX=0.015;entryY=0.5;entryDx=0;entryDy=0;entryPerimeter=0;" edge="1" parent="1" target="mRYv8QTVLDcQBSFWTLud-4">
          <mxGeometry width="50" height="50" relative="1" as="geometry">
            <mxPoint x="400" y="143" as="sourcePoint" />
            <mxPoint x="580" y="150" as="targetPoint" />
          </mxGeometry>
        </mxCell>
        <mxCell id="mRYv8QTVLDcQBSFWTLud-4" value="" style="shape=curlyBracket;whiteSpace=wrap;html=1;rounded=1;labelPosition=left;verticalLabelPosition=middle;align=right;verticalAlign=middle;" vertex="1" parent="1">
          <mxGeometry x="480" y="90" width="140" height="105" as="geometry" />
        </mxCell>
        <mxCell id="mRYv8QTVLDcQBSFWTLud-5" value="&lt;div&gt;#include&lt;br&gt;&lt;/div&gt;&lt;div&gt;using namespace std;&lt;/div&gt;&lt;div&gt;int main()&lt;/div&gt;&lt;div&gt;{&lt;br&gt;&lt;/div&gt;" style="text;html=1;align=center;verticalAlign=middle;whiteSpace=wrap;rounded=0;" vertex="1" parent="1">
          <mxGeometry x="560" y="102.5" width="160" height="80" as="geometry" />
        </mxCell>
        <mxCell id="mRYv8QTVLDcQBSFWTLud-6" style="edgeStyle=orthogonalEdgeStyle;rounded=0;orthogonalLoop=1;jettySize=auto;html=1;" edge="1" parent="1" source="mRYv8QTVLDcQBSFWTLud-7">
          <mxGeometry relative="1" as="geometry">
            <mxPoint x="400" y="299.9999999999999" as="targetPoint" />
          </mxGeometry>
        </mxCell>
        <mxCell id="mRYv8QTVLDcQBSFWTLud-7" value="float d, del, answ;" style="rounded=0;whiteSpace=wrap;html=1;" vertex="1" parent="1">
          <mxGeometry x="340" y="200" width="120" height="60" as="geometry" />
        </mxCell>
        <mxCell id="mRYv8QTVLDcQBSFWTLud-8" style="edgeStyle=orthogonalEdgeStyle;rounded=0;orthogonalLoop=1;jettySize=auto;html=1;entryX=0.5;entryY=0;entryDx=0;entryDy=0;" edge="1" parent="1" target="mRYv8QTVLDcQBSFWTLud-11">
          <mxGeometry relative="1" as="geometry">
            <mxPoint x="400" y="359.9999999999999" as="sourcePoint" />
          </mxGeometry>
        </mxCell>
        <mxCell id="mRYv8QTVLDcQBSFWTLud-9" style="edgeStyle=orthogonalEdgeStyle;rounded=0;orthogonalLoop=1;jettySize=auto;html=1;exitX=0;exitY=0.5;exitDx=0;exitDy=0;" edge="1" parent="1" source="mRYv8QTVLDcQBSFWTLud-11">
          <mxGeometry relative="1" as="geometry">
            <mxPoint x="200" y="480" as="targetPoint" />
          </mxGeometry>
        </mxCell>
        <mxCell id="mRYv8QTVLDcQBSFWTLud-10" style="edgeStyle=orthogonalEdgeStyle;rounded=0;orthogonalLoop=1;jettySize=auto;html=1;exitX=1;exitY=0.5;exitDx=0;exitDy=0;" edge="1" parent="1" source="mRYv8QTVLDcQBSFWTLud-11">
          <mxGeometry relative="1" as="geometry">
            <mxPoint x="600" y="480" as="targetPoint" />
          </mxGeometry>
        </mxCell>
        <mxCell id="mRYv8QTVLDcQBSFWTLud-11" value="if (d!=0 and del != 0);" style="rhombus;whiteSpace=wrap;html=1;" vertex="1" parent="1">
          <mxGeometry x="330" y="390" width="140" height="80" as="geometry" />
        </mxCell>
        <mxCell id="mRYv8QTVLDcQBSFWTLud-12" value="answ = d/del;" style="rounded=0;whiteSpace=wrap;html=1;" vertex="1" parent="1">
          <mxGeometry x="140" y="480" width="120" height="60" as="geometry" />
        </mxCell>
        <mxCell id="mRYv8QTVLDcQBSFWTLud-14" value="cin &amp;gt;&amp;gt;d&amp;gt;&amp;gt;del;" style="shape=parallelogram;perimeter=parallelogramPerimeter;whiteSpace=wrap;html=1;fixedSize=1;" vertex="1" parent="1">
          <mxGeometry x="340" y="300" width="120" height="60" as="geometry" />
        </mxCell>
        <mxCell id="mRYv8QTVLDcQBSFWTLud-15" value="" style="endArrow=none;html=1;rounded=0;exitX=0.5;exitY=1;exitDx=0;exitDy=0;" edge="1" parent="1" source="mRYv8QTVLDcQBSFWTLud-12">
          <mxGeometry width="50" height="50" relative="1" as="geometry">
            <mxPoint x="350" y="520" as="sourcePoint" />
            <mxPoint x="200" y="560" as="targetPoint" />
          </mxGeometry>
        </mxCell>
        <mxCell id="mRYv8QTVLDcQBSFWTLud-26" value="0" style="text;html=1;align=center;verticalAlign=middle;resizable=0;points=[];autosize=1;strokeColor=none;fillColor=none;" vertex="1" parent="1">
          <mxGeometry x="525" y="400" width="30" height="30" as="geometry" />
        </mxCell>
        <mxCell id="mRYv8QTVLDcQBSFWTLud-28" value="1" style="text;html=1;align=center;verticalAlign=middle;resizable=0;points=[];autosize=1;strokeColor=none;fillColor=none;" vertex="1" parent="1">
          <mxGeometry x="230" y="400" width="30" height="30" as="geometry" />
        </mxCell>
        <mxCell id="mRYv8QTVLDcQBSFWTLud-39" style="edgeStyle=orthogonalEdgeStyle;rounded=0;orthogonalLoop=1;jettySize=auto;html=1;" edge="1" parent="1" source="mRYv8QTVLDcQBSFWTLud-38">
          <mxGeometry relative="1" as="geometry">
            <mxPoint x="400" y="600" as="targetPoint" />
          </mxGeometry>
        </mxCell>
        <mxCell id="mRYv8QTVLDcQBSFWTLud-40" style="edgeStyle=orthogonalEdgeStyle;rounded=0;orthogonalLoop=1;jettySize=auto;html=1;" edge="1" parent="1" source="mRYv8QTVLDcQBSFWTLud-38">
          <mxGeometry relative="1" as="geometry">
            <mxPoint x="760" y="600" as="targetPoint" />
          </mxGeometry>
        </mxCell>
        <mxCell id="mRYv8QTVLDcQBSFWTLud-38" value="if d==0;" style="rhombus;whiteSpace=wrap;html=1;" vertex="1" parent="1">
          <mxGeometry x="530" y="480" width="140" height="80" as="geometry" />
        </mxCell>
        <mxCell id="mRYv8QTVLDcQBSFWTLud-41" value="1" style="text;html=1;align=center;verticalAlign=middle;resizable=0;points=[];autosize=1;strokeColor=none;fillColor=none;" vertex="1" parent="1">
          <mxGeometry x="460" y="490" width="30" height="30" as="geometry" />
        </mxCell>
        <mxCell id="mRYv8QTVLDcQBSFWTLud-42" value="0" style="text;html=1;align=center;verticalAlign=middle;resizable=0;points=[];autosize=1;strokeColor=none;fillColor=none;" vertex="1" parent="1">
          <mxGeometry x="710" y="490" width="30" height="30" as="geometry" />
        </mxCell>
        <mxCell id="mRYv8QTVLDcQBSFWTLud-43" value="answ=0;" style="rounded=0;whiteSpace=wrap;html=1;" vertex="1" parent="1">
          <mxGeometry x="340" y="600" width="120" height="60" as="geometry" />
        </mxCell>
        <mxCell id="mRYv8QTVLDcQBSFWTLud-45" value="cout&amp;lt;&amp;lt;&quot;На ноль делить нельзя&quot;&amp;lt;&amp;lt;endl;" style="shape=parallelogram;perimeter=parallelogramPerimeter;whiteSpace=wrap;html=1;fixedSize=1;" vertex="1" parent="1">
          <mxGeometry x="700" y="600" width="120" height="60" as="geometry" />
        </mxCell>
        <mxCell id="y-PabaopgNKKaNUDFkGu-1" value="" style="endArrow=none;html=1;rounded=0;" edge="1" parent="1">
          <mxGeometry width="50" height="50" relative="1" as="geometry">
            <mxPoint x="200" y="560" as="sourcePoint" />
            <mxPoint x="200" y="680" as="targetPoint" />
          </mxGeometry>
        </mxCell>
        <mxCell id="y-PabaopgNKKaNUDFkGu-2" value="" style="endArrow=none;html=1;rounded=0;exitX=0.5;exitY=1;exitDx=0;exitDy=0;" edge="1" parent="1" source="mRYv8QTVLDcQBSFWTLud-43">
          <mxGeometry width="50" height="50" relative="1" as="geometry">
            <mxPoint x="380" y="640" as="sourcePoint" />
            <mxPoint x="400" y="680" as="targetPoint" />
          </mxGeometry>
        </mxCell>
        <mxCell id="y-PabaopgNKKaNUDFkGu-4" value="" style="endArrow=none;html=1;rounded=0;" edge="1" parent="1">
          <mxGeometry width="50" height="50" relative="1" as="geometry">
            <mxPoint x="200" y="680" as="sourcePoint" />
            <mxPoint x="400" y="680" as="targetPoint" />
          </mxGeometry>
        </mxCell>
        <mxCell id="y-PabaopgNKKaNUDFkGu-6" value="cout&amp;lt;&amp;lt;answ&amp;lt;&amp;lt;endl;" style="shape=parallelogram;perimeter=parallelogramPerimeter;whiteSpace=wrap;html=1;fixedSize=1;" vertex="1" parent="1">
          <mxGeometry x="320" y="870" width="160" height="60" as="geometry" />
        </mxCell>
        <mxCell id="y-PabaopgNKKaNUDFkGu-7" value="" style="endArrow=none;html=1;rounded=0;entryX=0.5;entryY=1;entryDx=0;entryDy=0;" edge="1" parent="1" target="mRYv8QTVLDcQBSFWTLud-45">
          <mxGeometry width="50" height="50" relative="1" as="geometry">
            <mxPoint x="760" y="800" as="sourcePoint" />
            <mxPoint x="410" y="770" as="targetPoint" />
          </mxGeometry>
        </mxCell>
        <mxCell id="y-PabaopgNKKaNUDFkGu-10" value="" style="endArrow=none;html=1;rounded=0;" edge="1" parent="1">
          <mxGeometry width="50" height="50" relative="1" as="geometry">
            <mxPoint x="300" y="840" as="sourcePoint" />
            <mxPoint x="300" y="680" as="targetPoint" />
          </mxGeometry>
        </mxCell>
        <mxCell id="y-PabaopgNKKaNUDFkGu-11" value="" style="endArrow=none;html=1;rounded=0;" edge="1" parent="1">
          <mxGeometry width="50" height="50" relative="1" as="geometry">
            <mxPoint x="300" y="840" as="sourcePoint" />
            <mxPoint x="400" y="840" as="targetPoint" />
          </mxGeometry>
        </mxCell>
        <mxCell id="y-PabaopgNKKaNUDFkGu-12" value="" style="endArrow=classic;html=1;rounded=0;entryX=0.5;entryY=0;entryDx=0;entryDy=0;" edge="1" parent="1" target="y-PabaopgNKKaNUDFkGu-6">
          <mxGeometry width="50" height="50" relative="1" as="geometry">
            <mxPoint x="400" y="840" as="sourcePoint" />
            <mxPoint x="190" y="670" as="targetPoint" />
          </mxGeometry>
        </mxCell>
        <mxCell id="y-PabaopgNKKaNUDFkGu-14" value="" style="endArrow=classic;html=1;rounded=0;exitX=0.5;exitY=1;exitDx=0;exitDy=0;" edge="1" parent="1" source="y-PabaopgNKKaNUDFkGu-6" target="y-PabaopgNKKaNUDFkGu-17">
          <mxGeometry width="50" height="50" relative="1" as="geometry">
            <mxPoint x="430" y="960" as="sourcePoint" />
            <mxPoint x="400" y="1120" as="targetPoint" />
          </mxGeometry>
        </mxCell>
        <mxCell id="y-PabaopgNKKaNUDFkGu-15" value="" style="endArrow=none;html=1;rounded=0;" edge="1" parent="1">
          <mxGeometry width="50" height="50" relative="1" as="geometry">
            <mxPoint x="760" y="1000" as="sourcePoint" />
            <mxPoint x="760" y="800" as="targetPoint" />
          </mxGeometry>
        </mxCell>
        <mxCell id="y-PabaopgNKKaNUDFkGu-16" value="" style="endArrow=classic;html=1;rounded=0;" edge="1" parent="1">
          <mxGeometry width="50" height="50" relative="1" as="geometry">
            <mxPoint x="760" y="1000" as="sourcePoint" />
            <mxPoint x="400" y="1000" as="targetPoint" />
          </mxGeometry>
        </mxCell>
        <mxCell id="y-PabaopgNKKaNUDFkGu-17" value="КОНЕЦ" style="ellipse;whiteSpace=wrap;html=1;" vertex="1" parent="1">
          <mxGeometry x="340" y="1120" width="120" height="80" as="geometry" />
        </mxCell>
        <mxCell id="y-PabaopgNKKaNUDFkGu-18" value="" style="shape=curlyBracket;whiteSpace=wrap;html=1;rounded=1;labelPosition=left;verticalLabelPosition=middle;align=right;verticalAlign=middle;" vertex="1" parent="1">
          <mxGeometry x="480" y="1010" width="140" height="105" as="geometry" />
        </mxCell>
        <mxCell id="y-PabaopgNKKaNUDFkGu-19" value="&lt;div&gt;return 0;&lt;/div&gt;&lt;div&gt;}&lt;br&gt;&lt;/div&gt;" style="text;html=1;align=center;verticalAlign=middle;whiteSpace=wrap;rounded=0;" vertex="1" parent="1">
          <mxGeometry x="525" y="1022.5" width="160" height="80" as="geometry" />
        </mxCell>
        <mxCell id="y-PabaopgNKKaNUDFkGu-20" value="" style="endArrow=none;dashed=1;html=1;rounded=0;entryX=0.035;entryY=0.499;entryDx=0;entryDy=0;entryPerimeter=0;" edge="1" parent="1" target="y-PabaopgNKKaNUDFkGu-18">
          <mxGeometry width="50" height="50" relative="1" as="geometry">
            <mxPoint x="400" y="1062" as="sourcePoint" />
            <mxPoint x="510" y="1060" as="targetPoint" />
          </mxGeometry>
        </mxCell>
      </root>
    </mxGraphModel>
  </diagram>
  <diagram id="GCbdz_Cm_M3eh09A6gg5" name="Страница — 3">
    <mxGraphModel dx="2251" dy="1287" grid="1" gridSize="10" guides="1" tooltips="1" connect="1" arrows="1" fold="1" page="1" pageScale="1" pageWidth="827" pageHeight="1169" math="0" shadow="0">
      <root>
        <mxCell id="0" />
        <mxCell id="1" parent="0" />
        <mxCell id="jnFh4hoYkAS7aG8qU1nu-1" style="edgeStyle=orthogonalEdgeStyle;rounded=0;orthogonalLoop=1;jettySize=auto;html=1;" edge="1" parent="1" source="jnFh4hoYkAS7aG8qU1nu-2">
          <mxGeometry relative="1" as="geometry">
            <mxPoint x="400" y="200" as="targetPoint" />
          </mxGeometry>
        </mxCell>
        <mxCell id="jnFh4hoYkAS7aG8qU1nu-2" value="НАЧАЛО" style="ellipse;whiteSpace=wrap;html=1;" vertex="1" parent="1">
          <mxGeometry x="340" y="30" width="120" height="80" as="geometry" />
        </mxCell>
        <mxCell id="jnFh4hoYkAS7aG8qU1nu-3" value="" style="endArrow=none;dashed=1;html=1;rounded=0;entryX=0.015;entryY=0.5;entryDx=0;entryDy=0;entryPerimeter=0;" edge="1" parent="1" target="jnFh4hoYkAS7aG8qU1nu-4">
          <mxGeometry width="50" height="50" relative="1" as="geometry">
            <mxPoint x="400" y="143" as="sourcePoint" />
            <mxPoint x="580" y="150" as="targetPoint" />
          </mxGeometry>
        </mxCell>
        <mxCell id="jnFh4hoYkAS7aG8qU1nu-4" value="" style="shape=curlyBracket;whiteSpace=wrap;html=1;rounded=1;labelPosition=left;verticalLabelPosition=middle;align=right;verticalAlign=middle;" vertex="1" parent="1">
          <mxGeometry x="480" y="90" width="140" height="105" as="geometry" />
        </mxCell>
        <mxCell id="jnFh4hoYkAS7aG8qU1nu-5" value="&lt;div&gt;#include&lt;br&gt;&lt;/div&gt;&lt;div&gt;using namespace std;&lt;/div&gt;&lt;div&gt;int main()&lt;/div&gt;&lt;div&gt;{&lt;br&gt;&lt;/div&gt;" style="text;html=1;align=center;verticalAlign=middle;whiteSpace=wrap;rounded=0;" vertex="1" parent="1">
          <mxGeometry x="560" y="102.5" width="160" height="80" as="geometry" />
        </mxCell>
        <mxCell id="jnFh4hoYkAS7aG8qU1nu-7" style="edgeStyle=orthogonalEdgeStyle;rounded=0;orthogonalLoop=1;jettySize=auto;html=1;" edge="1" parent="1" source="jnFh4hoYkAS7aG8qU1nu-6" target="jnFh4hoYkAS7aG8qU1nu-8">
          <mxGeometry relative="1" as="geometry">
            <mxPoint x="400" y="320" as="targetPoint" />
          </mxGeometry>
        </mxCell>
        <mxCell id="jnFh4hoYkAS7aG8qU1nu-6" value="float a,b;" style="rounded=0;whiteSpace=wrap;html=1;" vertex="1" parent="1">
          <mxGeometry x="340" y="200" width="120" height="60" as="geometry" />
        </mxCell>
        <mxCell id="jnFh4hoYkAS7aG8qU1nu-10" style="edgeStyle=orthogonalEdgeStyle;rounded=0;orthogonalLoop=1;jettySize=auto;html=1;entryX=0.5;entryY=0;entryDx=0;entryDy=0;" edge="1" parent="1" source="jnFh4hoYkAS7aG8qU1nu-8" target="jnFh4hoYkAS7aG8qU1nu-9">
          <mxGeometry relative="1" as="geometry" />
        </mxCell>
        <mxCell id="jnFh4hoYkAS7aG8qU1nu-8" value="int op;" style="rounded=0;whiteSpace=wrap;html=1;" vertex="1" parent="1">
          <mxGeometry x="340" y="320" width="120" height="60" as="geometry" />
        </mxCell>
        <mxCell id="jnFh4hoYkAS7aG8qU1nu-11" style="edgeStyle=orthogonalEdgeStyle;rounded=0;orthogonalLoop=1;jettySize=auto;html=1;" edge="1" parent="1" source="jnFh4hoYkAS7aG8qU1nu-9" target="jnFh4hoYkAS7aG8qU1nu-12">
          <mxGeometry relative="1" as="geometry">
            <mxPoint x="400" y="500" as="targetPoint" />
          </mxGeometry>
        </mxCell>
        <mxCell id="jnFh4hoYkAS7aG8qU1nu-9" value="cout &amp;lt;&amp;lt; &quot;first, second, 1 - summ, 2 - vich, 3 - umn, 4 - del&quot;&amp;lt;&amp;lt;endl;" style="shape=parallelogram;perimeter=parallelogramPerimeter;whiteSpace=wrap;html=1;fixedSize=1;" vertex="1" parent="1">
          <mxGeometry x="205" y="410" width="390" height="60" as="geometry" />
        </mxCell>
        <mxCell id="jnFh4hoYkAS7aG8qU1nu-13" style="edgeStyle=orthogonalEdgeStyle;rounded=0;orthogonalLoop=1;jettySize=auto;html=1;" edge="1" parent="1" source="jnFh4hoYkAS7aG8qU1nu-12">
          <mxGeometry relative="1" as="geometry">
            <mxPoint x="400" y="600" as="targetPoint" />
          </mxGeometry>
        </mxCell>
        <mxCell id="jnFh4hoYkAS7aG8qU1nu-12" value="cin &amp;gt;&amp;gt; a &amp;gt;&amp;gt; b &amp;gt;&amp;gt; op;" style="shape=parallelogram;perimeter=parallelogramPerimeter;whiteSpace=wrap;html=1;fixedSize=1;" vertex="1" parent="1">
          <mxGeometry x="330" y="510" width="140" height="60" as="geometry" />
        </mxCell>
        <mxCell id="jnFh4hoYkAS7aG8qU1nu-15" style="edgeStyle=orthogonalEdgeStyle;rounded=0;orthogonalLoop=1;jettySize=auto;html=1;" edge="1" parent="1" source="jnFh4hoYkAS7aG8qU1nu-14" target="jnFh4hoYkAS7aG8qU1nu-16">
          <mxGeometry relative="1" as="geometry">
            <mxPoint x="400" y="700" as="targetPoint" />
          </mxGeometry>
        </mxCell>
        <mxCell id="jnFh4hoYkAS7aG8qU1nu-14" value="switch (op)" style="rounded=0;whiteSpace=wrap;html=1;" vertex="1" parent="1">
          <mxGeometry x="340" y="600" width="120" height="60" as="geometry" />
        </mxCell>
        <mxCell id="jnFh4hoYkAS7aG8qU1nu-17" style="edgeStyle=orthogonalEdgeStyle;rounded=0;orthogonalLoop=1;jettySize=auto;html=1;" edge="1" parent="1" source="jnFh4hoYkAS7aG8qU1nu-16">
          <mxGeometry relative="1" as="geometry">
            <mxPoint x="500" y="730" as="targetPoint" />
          </mxGeometry>
        </mxCell>
        <mxCell id="jnFh4hoYkAS7aG8qU1nu-16" value="case 1:" style="rhombus;whiteSpace=wrap;html=1;" vertex="1" parent="1">
          <mxGeometry x="360" y="690" width="80" height="80" as="geometry" />
        </mxCell>
        <mxCell id="jnFh4hoYkAS7aG8qU1nu-20" value="" style="edgeStyle=orthogonalEdgeStyle;rounded=0;orthogonalLoop=1;jettySize=auto;html=1;" edge="1" parent="1" source="jnFh4hoYkAS7aG8qU1nu-18" target="jnFh4hoYkAS7aG8qU1nu-19">
          <mxGeometry relative="1" as="geometry" />
        </mxCell>
        <mxCell id="jnFh4hoYkAS7aG8qU1nu-18" value="cout &amp;lt;&amp;lt; a + b &amp;lt;&amp;lt; endl;" style="shape=parallelogram;perimeter=parallelogramPerimeter;whiteSpace=wrap;html=1;fixedSize=1;" vertex="1" parent="1">
          <mxGeometry x="490" y="700" width="160" height="60" as="geometry" />
        </mxCell>
        <mxCell id="jnFh4hoYkAS7aG8qU1nu-19" value="break;" style="whiteSpace=wrap;html=1;" vertex="1" parent="1">
          <mxGeometry x="670" y="700" width="120" height="60" as="geometry" />
        </mxCell>
        <mxCell id="jnFh4hoYkAS7aG8qU1nu-22" style="edgeStyle=orthogonalEdgeStyle;rounded=0;orthogonalLoop=1;jettySize=auto;html=1;" edge="1" parent="1" target="jnFh4hoYkAS7aG8qU1nu-24">
          <mxGeometry relative="1" as="geometry">
            <mxPoint x="400" y="810" as="targetPoint" />
            <mxPoint x="400" y="770" as="sourcePoint" />
          </mxGeometry>
        </mxCell>
        <mxCell id="jnFh4hoYkAS7aG8qU1nu-23" style="edgeStyle=orthogonalEdgeStyle;rounded=0;orthogonalLoop=1;jettySize=auto;html=1;" edge="1" parent="1" source="jnFh4hoYkAS7aG8qU1nu-24">
          <mxGeometry relative="1" as="geometry">
            <mxPoint x="500" y="840" as="targetPoint" />
          </mxGeometry>
        </mxCell>
        <mxCell id="jnFh4hoYkAS7aG8qU1nu-24" value="&lt;div&gt;case 2:&lt;/div&gt;" style="rhombus;whiteSpace=wrap;html=1;" vertex="1" parent="1">
          <mxGeometry x="360" y="800" width="80" height="80" as="geometry" />
        </mxCell>
        <mxCell id="jnFh4hoYkAS7aG8qU1nu-25" value="" style="edgeStyle=orthogonalEdgeStyle;rounded=0;orthogonalLoop=1;jettySize=auto;html=1;" edge="1" parent="1" source="jnFh4hoYkAS7aG8qU1nu-26" target="jnFh4hoYkAS7aG8qU1nu-27">
          <mxGeometry relative="1" as="geometry" />
        </mxCell>
        <mxCell id="jnFh4hoYkAS7aG8qU1nu-26" value="cout &amp;lt;&amp;lt; a - b &amp;lt;&amp;lt; endl;" style="shape=parallelogram;perimeter=parallelogramPerimeter;whiteSpace=wrap;html=1;fixedSize=1;" vertex="1" parent="1">
          <mxGeometry x="490" y="810" width="160" height="60" as="geometry" />
        </mxCell>
        <mxCell id="jnFh4hoYkAS7aG8qU1nu-27" value="break;" style="whiteSpace=wrap;html=1;" vertex="1" parent="1">
          <mxGeometry x="670" y="810" width="120" height="60" as="geometry" />
        </mxCell>
        <mxCell id="jnFh4hoYkAS7aG8qU1nu-28" style="edgeStyle=orthogonalEdgeStyle;rounded=0;orthogonalLoop=1;jettySize=auto;html=1;" edge="1" parent="1" target="jnFh4hoYkAS7aG8qU1nu-30">
          <mxGeometry relative="1" as="geometry">
            <mxPoint x="400" y="920" as="targetPoint" />
            <mxPoint x="400" y="880" as="sourcePoint" />
          </mxGeometry>
        </mxCell>
        <mxCell id="jnFh4hoYkAS7aG8qU1nu-29" style="edgeStyle=orthogonalEdgeStyle;rounded=0;orthogonalLoop=1;jettySize=auto;html=1;" edge="1" parent="1" source="jnFh4hoYkAS7aG8qU1nu-30">
          <mxGeometry relative="1" as="geometry">
            <mxPoint x="500" y="950" as="targetPoint" />
          </mxGeometry>
        </mxCell>
        <mxCell id="jnFh4hoYkAS7aG8qU1nu-30" value="&lt;div&gt;case 3:&lt;/div&gt;" style="rhombus;whiteSpace=wrap;html=1;" vertex="1" parent="1">
          <mxGeometry x="360" y="910" width="80" height="80" as="geometry" />
        </mxCell>
        <mxCell id="jnFh4hoYkAS7aG8qU1nu-31" value="" style="edgeStyle=orthogonalEdgeStyle;rounded=0;orthogonalLoop=1;jettySize=auto;html=1;" edge="1" parent="1" source="jnFh4hoYkAS7aG8qU1nu-32" target="jnFh4hoYkAS7aG8qU1nu-33">
          <mxGeometry relative="1" as="geometry" />
        </mxCell>
        <mxCell id="jnFh4hoYkAS7aG8qU1nu-32" value="cout &amp;lt;&amp;lt; a * b &amp;lt;&amp;lt; endl;" style="shape=parallelogram;perimeter=parallelogramPerimeter;whiteSpace=wrap;html=1;fixedSize=1;" vertex="1" parent="1">
          <mxGeometry x="490" y="920" width="160" height="60" as="geometry" />
        </mxCell>
        <mxCell id="jnFh4hoYkAS7aG8qU1nu-33" value="break;" style="whiteSpace=wrap;html=1;" vertex="1" parent="1">
          <mxGeometry x="670" y="920" width="120" height="60" as="geometry" />
        </mxCell>
        <mxCell id="jnFh4hoYkAS7aG8qU1nu-34" style="edgeStyle=orthogonalEdgeStyle;rounded=0;orthogonalLoop=1;jettySize=auto;html=1;" edge="1" parent="1" target="jnFh4hoYkAS7aG8qU1nu-36">
          <mxGeometry relative="1" as="geometry">
            <mxPoint x="400" y="1030" as="targetPoint" />
            <mxPoint x="400" y="990" as="sourcePoint" />
          </mxGeometry>
        </mxCell>
        <mxCell id="jnFh4hoYkAS7aG8qU1nu-35" style="edgeStyle=orthogonalEdgeStyle;rounded=0;orthogonalLoop=1;jettySize=auto;html=1;entryX=0.5;entryY=0;entryDx=0;entryDy=0;" edge="1" parent="1" source="jnFh4hoYkAS7aG8qU1nu-36" target="jnFh4hoYkAS7aG8qU1nu-67">
          <mxGeometry relative="1" as="geometry">
            <mxPoint x="910" y="1060" as="targetPoint" />
            <Array as="points">
              <mxPoint x="911" y="1060" />
            </Array>
          </mxGeometry>
        </mxCell>
        <mxCell id="jnFh4hoYkAS7aG8qU1nu-86" style="edgeStyle=orthogonalEdgeStyle;rounded=0;orthogonalLoop=1;jettySize=auto;html=1;" edge="1" parent="1" source="jnFh4hoYkAS7aG8qU1nu-36">
          <mxGeometry relative="1" as="geometry">
            <mxPoint x="400" y="1640" as="targetPoint" />
          </mxGeometry>
        </mxCell>
        <mxCell id="jnFh4hoYkAS7aG8qU1nu-36" value="case 4:" style="rhombus;whiteSpace=wrap;html=1;" vertex="1" parent="1">
          <mxGeometry x="360" y="1020" width="80" height="80" as="geometry" />
        </mxCell>
        <mxCell id="jnFh4hoYkAS7aG8qU1nu-40" value="1" style="text;html=1;align=center;verticalAlign=middle;resizable=0;points=[];autosize=1;strokeColor=none;fillColor=none;" vertex="1" parent="1">
          <mxGeometry x="455" y="688" width="30" height="30" as="geometry" />
        </mxCell>
        <mxCell id="jnFh4hoYkAS7aG8qU1nu-41" value="1" style="text;html=1;align=center;verticalAlign=middle;resizable=0;points=[];autosize=1;strokeColor=none;fillColor=none;" vertex="1" parent="1">
          <mxGeometry x="455" y="808" width="30" height="30" as="geometry" />
        </mxCell>
        <mxCell id="jnFh4hoYkAS7aG8qU1nu-42" value="1" style="text;html=1;align=center;verticalAlign=middle;resizable=0;points=[];autosize=1;strokeColor=none;fillColor=none;" vertex="1" parent="1">
          <mxGeometry x="450" y="920" width="30" height="30" as="geometry" />
        </mxCell>
        <mxCell id="jnFh4hoYkAS7aG8qU1nu-43" value="1" style="text;html=1;align=center;verticalAlign=middle;resizable=0;points=[];autosize=1;strokeColor=none;fillColor=none;" vertex="1" parent="1">
          <mxGeometry x="455" y="1028" width="30" height="30" as="geometry" />
        </mxCell>
        <mxCell id="jnFh4hoYkAS7aG8qU1nu-44" value="0" style="text;html=1;align=center;verticalAlign=middle;resizable=0;points=[];autosize=1;strokeColor=none;fillColor=none;" vertex="1" parent="1">
          <mxGeometry x="365" y="768" width="30" height="30" as="geometry" />
        </mxCell>
        <mxCell id="jnFh4hoYkAS7aG8qU1nu-45" value="0" style="text;html=1;align=center;verticalAlign=middle;resizable=0;points=[];autosize=1;strokeColor=none;fillColor=none;" vertex="1" parent="1">
          <mxGeometry x="365" y="880" width="30" height="30" as="geometry" />
        </mxCell>
        <mxCell id="jnFh4hoYkAS7aG8qU1nu-46" value="0" style="text;html=1;align=center;verticalAlign=middle;resizable=0;points=[];autosize=1;strokeColor=none;fillColor=none;" vertex="1" parent="1">
          <mxGeometry x="375" y="988" width="30" height="30" as="geometry" />
        </mxCell>
        <mxCell id="jnFh4hoYkAS7aG8qU1nu-65" style="edgeStyle=orthogonalEdgeStyle;rounded=0;orthogonalLoop=1;jettySize=auto;html=1;" edge="1" parent="1" source="jnFh4hoYkAS7aG8qU1nu-67">
          <mxGeometry relative="1" as="geometry">
            <mxPoint x="1110" y="1230" as="targetPoint" />
          </mxGeometry>
        </mxCell>
        <mxCell id="jnFh4hoYkAS7aG8qU1nu-66" style="edgeStyle=orthogonalEdgeStyle;rounded=0;orthogonalLoop=1;jettySize=auto;html=1;" edge="1" parent="1" source="jnFh4hoYkAS7aG8qU1nu-67">
          <mxGeometry relative="1" as="geometry">
            <mxPoint x="710" y="1230.0000000000002" as="targetPoint" />
            <Array as="points">
              <mxPoint x="710" y="1150" />
            </Array>
          </mxGeometry>
        </mxCell>
        <mxCell id="jnFh4hoYkAS7aG8qU1nu-67" value="if ((b != 0) &amp;amp;&amp;amp; (a != 0))" style="rhombus;whiteSpace=wrap;html=1;" vertex="1" parent="1">
          <mxGeometry x="831" y="1110" width="160" height="80" as="geometry" />
        </mxCell>
        <mxCell id="jnFh4hoYkAS7aG8qU1nu-68" value="&lt;div&gt;1&lt;/div&gt;" style="text;html=1;align=center;verticalAlign=middle;resizable=0;points=[];autosize=1;strokeColor=none;fillColor=none;" vertex="1" parent="1">
          <mxGeometry x="1055" y="1118" width="30" height="30" as="geometry" />
        </mxCell>
        <mxCell id="jnFh4hoYkAS7aG8qU1nu-69" value="0" style="text;html=1;align=center;verticalAlign=middle;resizable=0;points=[];autosize=1;strokeColor=none;fillColor=none;" vertex="1" parent="1">
          <mxGeometry x="735" y="1118" width="30" height="30" as="geometry" />
        </mxCell>
        <mxCell id="jnFh4hoYkAS7aG8qU1nu-70" value="cout &amp;lt;&amp;lt; a / b &amp;lt;&amp;lt; endl;" style="shape=parallelogram;perimeter=parallelogramPerimeter;whiteSpace=wrap;html=1;fixedSize=1;" vertex="1" parent="1">
          <mxGeometry x="1030" y="1230" width="150" height="60" as="geometry" />
        </mxCell>
        <mxCell id="jnFh4hoYkAS7aG8qU1nu-71" value="" style="endArrow=none;html=1;rounded=0;exitX=0.5;exitY=1;exitDx=0;exitDy=0;" edge="1" parent="1">
          <mxGeometry width="50" height="50" relative="1" as="geometry">
            <mxPoint x="1110" y="1290" as="sourcePoint" />
            <mxPoint x="1110" y="1510" as="targetPoint" />
            <Array as="points">
              <mxPoint x="1110" y="1320" />
            </Array>
          </mxGeometry>
        </mxCell>
        <mxCell id="jnFh4hoYkAS7aG8qU1nu-72" style="edgeStyle=orthogonalEdgeStyle;rounded=0;orthogonalLoop=1;jettySize=auto;html=1;" edge="1" parent="1" source="jnFh4hoYkAS7aG8qU1nu-74">
          <mxGeometry relative="1" as="geometry">
            <mxPoint x="870" y="1350" as="targetPoint" />
          </mxGeometry>
        </mxCell>
        <mxCell id="jnFh4hoYkAS7aG8qU1nu-73" style="edgeStyle=orthogonalEdgeStyle;rounded=0;orthogonalLoop=1;jettySize=auto;html=1;" edge="1" parent="1" source="jnFh4hoYkAS7aG8qU1nu-74">
          <mxGeometry relative="1" as="geometry">
            <mxPoint x="550" y="1350.0000000000002" as="targetPoint" />
          </mxGeometry>
        </mxCell>
        <mxCell id="jnFh4hoYkAS7aG8qU1nu-74" value="if (b == 0)" style="rhombus;whiteSpace=wrap;html=1;" vertex="1" parent="1">
          <mxGeometry x="670" y="1230" width="80" height="80" as="geometry" />
        </mxCell>
        <mxCell id="jnFh4hoYkAS7aG8qU1nu-75" value="cout &amp;lt;&amp;lt; 0 &amp;lt;&amp;lt; endl;" style="shape=parallelogram;perimeter=parallelogramPerimeter;whiteSpace=wrap;html=1;fixedSize=1;" vertex="1" parent="1">
          <mxGeometry x="470" y="1350" width="160" height="60" as="geometry" />
        </mxCell>
        <mxCell id="jnFh4hoYkAS7aG8qU1nu-76" value="cout &amp;lt;&amp;lt; &quot;You can&#39;t divide by 0&quot; &amp;lt;&amp;lt; endl;" style="shape=parallelogram;perimeter=parallelogramPerimeter;whiteSpace=wrap;html=1;fixedSize=1;" vertex="1" parent="1">
          <mxGeometry x="741" y="1350" width="250" height="60" as="geometry" />
        </mxCell>
        <mxCell id="jnFh4hoYkAS7aG8qU1nu-77" value="1" style="text;html=1;align=center;verticalAlign=middle;resizable=0;points=[];autosize=1;strokeColor=none;fillColor=none;" vertex="1" parent="1">
          <mxGeometry x="815" y="1238" width="30" height="30" as="geometry" />
        </mxCell>
        <mxCell id="jnFh4hoYkAS7aG8qU1nu-78" value="0" style="text;html=1;align=center;verticalAlign=middle;resizable=0;points=[];autosize=1;strokeColor=none;fillColor=none;" vertex="1" parent="1">
          <mxGeometry x="585" y="1238" width="30" height="30" as="geometry" />
        </mxCell>
        <mxCell id="jnFh4hoYkAS7aG8qU1nu-79" value="" style="endArrow=none;html=1;rounded=0;exitX=0.5;exitY=1;exitDx=0;exitDy=0;" edge="1" parent="1" source="jnFh4hoYkAS7aG8qU1nu-75">
          <mxGeometry width="50" height="50" relative="1" as="geometry">
            <mxPoint x="830" y="1400" as="sourcePoint" />
            <mxPoint x="550" y="1460" as="targetPoint" />
          </mxGeometry>
        </mxCell>
        <mxCell id="jnFh4hoYkAS7aG8qU1nu-80" value="" style="endArrow=none;html=1;rounded=0;exitX=0.5;exitY=1;exitDx=0;exitDy=0;" edge="1" parent="1">
          <mxGeometry width="50" height="50" relative="1" as="geometry">
            <mxPoint x="870" y="1410" as="sourcePoint" />
            <mxPoint x="870" y="1460" as="targetPoint" />
          </mxGeometry>
        </mxCell>
        <mxCell id="jnFh4hoYkAS7aG8qU1nu-81" value="" style="endArrow=none;html=1;rounded=0;" edge="1" parent="1">
          <mxGeometry width="50" height="50" relative="1" as="geometry">
            <mxPoint x="550" y="1460" as="sourcePoint" />
            <mxPoint x="870" y="1460" as="targetPoint" />
          </mxGeometry>
        </mxCell>
        <mxCell id="jnFh4hoYkAS7aG8qU1nu-82" value="" style="endArrow=none;html=1;rounded=0;" edge="1" parent="1">
          <mxGeometry width="50" height="50" relative="1" as="geometry">
            <mxPoint x="710" y="1460" as="sourcePoint" />
            <mxPoint x="710" y="1510" as="targetPoint" />
          </mxGeometry>
        </mxCell>
        <mxCell id="jnFh4hoYkAS7aG8qU1nu-83" value="" style="endArrow=none;html=1;rounded=0;" edge="1" parent="1">
          <mxGeometry width="50" height="50" relative="1" as="geometry">
            <mxPoint x="710" y="1510" as="sourcePoint" />
            <mxPoint x="1110" y="1510" as="targetPoint" />
          </mxGeometry>
        </mxCell>
        <mxCell id="jnFh4hoYkAS7aG8qU1nu-84" value="" style="endArrow=classic;html=1;rounded=0;" edge="1" parent="1" target="jnFh4hoYkAS7aG8qU1nu-85">
          <mxGeometry width="50" height="50" relative="1" as="geometry">
            <mxPoint x="920" y="1510" as="sourcePoint" />
            <mxPoint x="920" y="1560" as="targetPoint" />
          </mxGeometry>
        </mxCell>
        <mxCell id="jnFh4hoYkAS7aG8qU1nu-85" value="break;" style="rounded=0;whiteSpace=wrap;html=1;" vertex="1" parent="1">
          <mxGeometry x="860" y="1530" width="120" height="60" as="geometry" />
        </mxCell>
        <mxCell id="jnFh4hoYkAS7aG8qU1nu-88" style="edgeStyle=orthogonalEdgeStyle;rounded=0;orthogonalLoop=1;jettySize=auto;html=1;" edge="1" parent="1">
          <mxGeometry relative="1" as="geometry">
            <mxPoint x="540" y="1679.68" as="targetPoint" />
            <mxPoint x="440" y="1679.68" as="sourcePoint" />
          </mxGeometry>
        </mxCell>
        <mxCell id="jnFh4hoYkAS7aG8qU1nu-89" value="default:" style="rhombus;whiteSpace=wrap;html=1;" vertex="1" parent="1">
          <mxGeometry x="360" y="1640" width="80" height="80" as="geometry" />
        </mxCell>
        <mxCell id="jnFh4hoYkAS7aG8qU1nu-90" value="1" style="text;html=1;align=center;verticalAlign=middle;resizable=0;points=[];autosize=1;strokeColor=none;fillColor=none;" vertex="1" parent="1">
          <mxGeometry x="445" y="1648" width="30" height="30" as="geometry" />
        </mxCell>
        <mxCell id="jnFh4hoYkAS7aG8qU1nu-91" value="cout &amp;lt;&amp;lt; &quot;wrong znach&quot; &amp;lt;&amp;lt; endl;" style="shape=parallelogram;perimeter=parallelogramPerimeter;whiteSpace=wrap;html=1;fixedSize=1;" vertex="1" parent="1">
          <mxGeometry x="530" y="1650" width="220" height="60" as="geometry" />
        </mxCell>
        <mxCell id="jnFh4hoYkAS7aG8qU1nu-92" value="" style="endArrow=none;html=1;rounded=0;exitX=1;exitY=0.5;exitDx=0;exitDy=0;" edge="1" parent="1" source="jnFh4hoYkAS7aG8qU1nu-19">
          <mxGeometry width="50" height="50" relative="1" as="geometry">
            <mxPoint x="610" y="1300" as="sourcePoint" />
            <mxPoint x="1240" y="730" as="targetPoint" />
          </mxGeometry>
        </mxCell>
        <mxCell id="jnFh4hoYkAS7aG8qU1nu-93" value="" style="endArrow=none;html=1;rounded=0;exitX=1;exitY=0.5;exitDx=0;exitDy=0;" edge="1" parent="1">
          <mxGeometry width="50" height="50" relative="1" as="geometry">
            <mxPoint x="790" y="839.38" as="sourcePoint" />
            <mxPoint x="1240" y="839" as="targetPoint" />
          </mxGeometry>
        </mxCell>
        <mxCell id="jnFh4hoYkAS7aG8qU1nu-94" value="" style="endArrow=none;html=1;rounded=0;exitX=1;exitY=0.5;exitDx=0;exitDy=0;" edge="1" parent="1">
          <mxGeometry width="50" height="50" relative="1" as="geometry">
            <mxPoint x="790" y="950" as="sourcePoint" />
            <mxPoint x="1240" y="950" as="targetPoint" />
          </mxGeometry>
        </mxCell>
        <mxCell id="jnFh4hoYkAS7aG8qU1nu-95" value="" style="endArrow=none;html=1;rounded=0;exitX=1;exitY=0.5;exitDx=0;exitDy=0;" edge="1" parent="1">
          <mxGeometry width="50" height="50" relative="1" as="geometry">
            <mxPoint x="980" y="1559.38" as="sourcePoint" />
            <mxPoint x="1240" y="1560" as="targetPoint" />
          </mxGeometry>
        </mxCell>
        <mxCell id="jnFh4hoYkAS7aG8qU1nu-96" value="" style="endArrow=none;html=1;rounded=0;exitX=1;exitY=0.5;exitDx=0;exitDy=0;" edge="1" parent="1" source="jnFh4hoYkAS7aG8qU1nu-91">
          <mxGeometry width="50" height="50" relative="1" as="geometry">
            <mxPoint x="900" y="1750" as="sourcePoint" />
            <mxPoint x="1240" y="1680" as="targetPoint" />
          </mxGeometry>
        </mxCell>
        <mxCell id="jnFh4hoYkAS7aG8qU1nu-97" value="" style="endArrow=none;html=1;rounded=0;" edge="1" parent="1">
          <mxGeometry width="50" height="50" relative="1" as="geometry">
            <mxPoint x="1240" y="730" as="sourcePoint" />
            <mxPoint x="1240" y="1760" as="targetPoint" />
          </mxGeometry>
        </mxCell>
        <mxCell id="jnFh4hoYkAS7aG8qU1nu-98" value="" style="endArrow=none;html=1;rounded=0;" edge="1" parent="1">
          <mxGeometry width="50" height="50" relative="1" as="geometry">
            <mxPoint x="1240" y="1760" as="sourcePoint" />
            <mxPoint x="400" y="1760" as="targetPoint" />
          </mxGeometry>
        </mxCell>
        <mxCell id="jnFh4hoYkAS7aG8qU1nu-100" value="" style="endArrow=classic;html=1;rounded=0;" edge="1" parent="1">
          <mxGeometry width="50" height="50" relative="1" as="geometry">
            <mxPoint x="400" y="1760" as="sourcePoint" />
            <mxPoint x="400" y="1920" as="targetPoint" />
          </mxGeometry>
        </mxCell>
        <mxCell id="-stLinWS9hYcmhd_bJau-1" value="" style="shape=curlyBracket;whiteSpace=wrap;html=1;rounded=1;labelPosition=left;verticalLabelPosition=middle;align=right;verticalAlign=middle;" vertex="1" parent="1">
          <mxGeometry x="480" y="1780" width="140" height="105" as="geometry" />
        </mxCell>
        <mxCell id="-stLinWS9hYcmhd_bJau-2" value="" style="endArrow=none;dashed=1;html=1;rounded=0;entryX=0.035;entryY=0.499;entryDx=0;entryDy=0;entryPerimeter=0;" edge="1" parent="1" target="-stLinWS9hYcmhd_bJau-1">
          <mxGeometry width="50" height="50" relative="1" as="geometry">
            <mxPoint x="400" y="1832" as="sourcePoint" />
            <mxPoint x="510" y="1830" as="targetPoint" />
          </mxGeometry>
        </mxCell>
        <mxCell id="Ej58jxvIogTUU0k6f_rU-1" value="&lt;div align=&quot;left&quot;&gt;return 0;&lt;/div&gt;&lt;div align=&quot;left&quot;&gt;}&lt;br&gt;&lt;/div&gt;" style="text;html=1;align=left;verticalAlign=middle;whiteSpace=wrap;rounded=0;" vertex="1" parent="1">
          <mxGeometry x="570" y="1800" width="140" height="70" as="geometry" />
        </mxCell>
        <mxCell id="Ej58jxvIogTUU0k6f_rU-2" value="КОНЕЦ" style="ellipse;whiteSpace=wrap;html=1;" vertex="1" parent="1">
          <mxGeometry x="340" y="1920" width="120" height="80" as="geometry" />
        </mxCell>
        <mxCell id="Ej58jxvIogTUU0k6f_rU-3" value="0" style="text;html=1;align=center;verticalAlign=middle;resizable=0;points=[];autosize=1;strokeColor=none;fillColor=none;" vertex="1" parent="1">
          <mxGeometry x="365" y="1108" width="30" height="30" as="geometry" />
        </mxCell>
      </root>
    </mxGraphModel>
  </diagram>
</mxfile>
